# xmcd
#
# Track frame offsets:
#  154
#  13972
#  30337
#  48243
#  65322
#  85574
#  97482
#  113048
#  131015
#  144092
#  159627
#  173840
#
# Disc length: 2531 seconds
#
# Revision: 0
# Processed by: cddbd v1.4PL0 Copyright (c) Steve Scherf et al.
# Submitted via: AltoMP3_Maker 3.0
#
DISCID=9609e10c
DTITLE=James Foley - More hot country hits vol 6
DYEAR=1900
DGENRE=
TTITLE0=Pop-A-Top
TTITLE1=Write this down
TTITLE2=Redneck girls
TTITLE3=Two pina colada
TTITLE4=Neon moon
TTITLE5=Little bitty
TTITLE6=The shake
TTITLE7=Baby i'm amazed
TTITLE8=Then what
TTITLE9=My ex live in texas
TTITLE10=I'm from the country
TTITLE11=I want a dance with you
EXTD=
EXTT0=
EXTT1=
EXTT2=
EXTT3=
EXTT4=
EXTT5=
EXTT6=
EXTT7=
EXTT8=
EXTT9=
EXTT10=
EXTT11=
PLAYORDER=
